<svg width="16" height="16" viewBox="0 0 16 16" fill="none" xmlns="http://www.w3.org/2000/svg">
<g clip-path="url(#clip0_208_76)">
<path d="M14.8575 7.78286L8.05751 14.64C7.79367 14.9088 7.47889 15.1224 7.13156 15.2682C6.78423 15.414 6.41133 15.489 6.03465 15.489C5.65797 15.489 5.28507 15.414 4.93775 15.2682C4.59042 15.1224 4.27564 14.9088 4.0118 14.64L1.97751 12.5714C1.44497 12.0305 1.14648 11.3019 1.14648 10.5429C1.14648 9.78381 1.44497 9.05519 1.97751 8.51429L9.22322 1.24572C9.43571 1.03148 9.68851 0.861441 9.96705 0.745398C10.2456 0.629355 10.5443 0.569611 10.8461 0.569611C11.1478 0.569611 11.4466 0.629355 11.7251 0.745398C12.0036 0.861441 12.2565 1.03148 12.4689 1.24572L13.2804 2.05715C13.4946 2.26964 13.6646 2.52244 13.7807 2.80097C13.8967 3.07951 13.9565 3.37827 13.9565 3.68001C13.9565 3.98175 13.8967 4.2805 13.7807 4.55904C13.6646 4.83757 13.4946 5.09038 13.2804 5.30286L6.85751 11.7486C6.75127 11.8557 6.62487 11.9407 6.4856 11.9987C6.34633 12.0568 6.19695 12.0866 6.04608 12.0866C5.89521 12.0866 5.74583 12.0568 5.60657 11.9987C5.4673 11.9407 5.3409 11.8557 5.23465 11.7486L4.83465 11.3371C4.72754 11.2309 4.64251 11.1045 4.58449 10.9652C4.52647 10.826 4.4966 10.6766 4.4966 10.5257C4.4966 10.3749 4.52647 10.2255 4.58449 10.0862C4.64251 9.94694 4.72754 9.82054 4.83465 9.71429L9.14322 5.44001" stroke="#0665EF" stroke-width="1.71429" stroke-linecap="round" stroke-linejoin="round"/>
</g>
<defs>
<clipPath id="clip0_208_76">
<rect width="16" height="16" fill="white"/>
</clipPath>
</defs>
</svg>
