<svg xmlns="http://www.w3.org/2000/svg" width="31.617" height="31.617" viewBox="0 0 31.617 31.617">
    <g id="prefix__fone" transform="translate(0 -.001)">
        <g id="prefix__Grupo_22" data-name="Grupo 22" transform="translate(0 .002)">
            <path id="prefix__Caminho_15" d="M31.614 25.478a4.677 4.677 0 0 0-1.434-3.214 11.487 11.487 0 0 0-4.548-3.021 5.09 5.09 0 0 0-5.227 1.483l-.007.007-1.67 1.657a25.023 25.023 0 0 1-5.265-4.072l-.163-.162a25.026 25.026 0 0 1-4.072-5.265l1.657-1.67.007-.007a5.09 5.09 0 0 0 1.483-5.227 11.488 11.488 0 0 0-3.02-4.548A4.7 4.7 0 0 0 2.832 1.2l-.032.036-.048.046A10.021 10.021 0 0 0 0 8.621C.026 13.7 2.816 19.505 7.465 24.154a30.1 30.1 0 0 0 2.961 2.578 1.235 1.235 0 0 0 1.5-1.96 27.655 27.655 0 0 1-2.717-2.365c-4.2-4.2-6.719-9.357-6.741-13.8a7.63 7.63 0 0 1 2-5.559l.009-.009a2.222 2.222 0 0 1 3.094.112c3.2 3.316 2.966 4.881 1.553 6.33L6.841 11.79a1.235 1.235 0 0 0-.252 1.373 24.956 24.956 0 0 0 4.966 6.737l.163.162a24.952 24.952 0 0 0 6.739 4.965 1.235 1.235 0 0 0 1.372-.252l2.307-2.289c1.449-1.413 3.015-1.644 6.33 1.553a2.222 2.222 0 0 1 .112 3.094l-.009.01a7.607 7.607 0 0 1-5.5 2h-.059a16.015 16.015 0 0 1-6.094-1.443 1.235 1.235 0 0 0-.978 2.268A18.22 18.22 0 0 0 23 31.618h.069a10 10 0 0 0 7.271-2.749l.046-.048.032-.036a4.677 4.677 0 0 0 1.196-3.307z" data-name="Caminho 15" transform="translate(0 -.002)" style="fill:#0665ef"/>
        </g>
    </g>
</svg>
