<svg width="16" height="16" viewBox="0 0 16 16" fill="none" xmlns="http://www.w3.org/2000/svg">
<path d="M4.04536 1.95428C4.04846 2.35351 3.89436 2.73794 3.61636 3.02449C3.33837 3.31104 2.95879 3.47672 2.55964 3.48571C2.16133 3.4711 1.78385 3.30402 1.50522 3.019C1.22658 2.73399 1.06809 2.35283 1.0625 1.95428C1.07981 1.56598 1.24413 1.19879 1.52214 0.92715C1.80015 0.655508 2.17104 0.499741 2.55964 0.491425C2.9471 0.499896 3.3167 0.65605 3.59286 0.92796C3.86901 1.19987 4.03088 1.567 4.04536 1.95428ZM1.2225 6.20571C1.2225 5.32571 1.7825 5.46285 2.55964 5.46285C3.33679 5.46285 3.88536 5.32571 3.88536 6.20571V14.7771C3.88536 15.6686 3.32536 15.4857 2.55964 15.4857C1.79393 15.4857 1.2225 15.6686 1.2225 14.7771V6.20571Z" fill="#0665EF"/>
<path d="M6.19434 6.2057C6.19434 5.71428 6.37719 5.53142 6.66291 5.47428C6.94862 5.41713 7.93148 5.47428 8.27434 5.47428C8.61719 5.47428 8.75434 6.03428 8.74291 6.45713C9.03619 6.06353 9.42556 5.75176 9.87378 5.55166C10.322 5.35156 10.8141 5.26983 11.3029 5.31428C11.7829 5.28493 12.2638 5.3569 12.7142 5.52551C13.1646 5.69412 13.5745 5.9556 13.9172 6.29296C14.26 6.63032 14.5279 7.03601 14.7036 7.48368C14.8794 7.93135 14.9589 8.41099 14.9372 8.89142V14.7428C14.9372 15.6343 14.3886 15.4514 13.6115 15.4514C12.8343 15.4514 12.2858 15.6343 12.2858 14.7428V10.1714C12.3059 9.93614 12.2751 9.6993 12.1955 9.47697C12.116 9.25464 11.9895 9.05203 11.8247 8.8829C11.6599 8.71378 11.4607 8.5821 11.2405 8.4968C11.0203 8.4115 10.7843 8.37459 10.5486 8.38856C10.314 8.3826 10.0808 8.42655 9.86441 8.51749C9.64805 8.60844 9.45347 8.74431 9.29356 8.9161C9.13365 9.0879 9.01205 9.2917 8.93683 9.51402C8.8616 9.73634 8.83446 9.97211 8.85719 10.2057V14.7771C8.85719 15.6686 8.29719 15.4857 7.52005 15.4857C6.74291 15.4857 6.19434 15.6686 6.19434 14.7771V6.2057Z" fill="#0665EF"/>
</svg>
