<svg xmlns="http://www.w3.org/2000/svg" width="233" height="54.651" viewBox="0 0 233 54.651">
  <g id="logo-full" transform="translate(-1174.378 -2526.693)">
    <path id="Caminho_1" data-name="Caminho 1" d="M1416.972,2594.093c-9.11,0-16.494,7.063-16.494,15.776s7.385,15.775,16.494,15.775,16.495-7.063,16.495-15.775S1426.082,2594.093,1416.972,2594.093Zm0,23.641a7.865,7.865,0,1,1,7.865-7.865A7.866,7.866,0,0,1,1416.972,2617.734Z" transform="translate(-190.449 -56.772)" fill="#0665ef"/>
    <path id="Caminho_2" data-name="Caminho 2" d="M1663.3,2625.677c-3.256-.041-3.689-2.046-3.56-5.282v-17.379h-8.509l-.128,17.525c-.088,5.573-11,7.574-11-.449h0l-.16-17.075h-8.509l.135,17.634h0c.087,6.729,2.882,12.634,11.143,12.634,8.394,0,9.18-4.415,9.18-4.415,1.137,3.934,6.47,4.94,11.453,3.847C1663.346,2628.3,1663.3,2625.677,1663.3,2625.677Z" transform="translate(-384.985 -64.288)" fill="#0665ef"/>
    <path id="Caminho_3" data-name="Caminho 3" d="M2324.114,2594.894a10,10,0,0,0-8.57,4.841v-4.13h-8.509l-.128,30.509,8.637-.026v-15.463c0,.006.007.014.011.019.1-4.922,3.717-7.607,7.926-7.607a15.724,15.724,0,0,1,3.073.284V2595.2A9.992,9.992,0,0,0,2324.114,2594.894Z" transform="translate(-953.953 -57.447)" fill="#0665ef"/>
    <path id="Caminho_4" data-name="Caminho 4" d="M2114.537,2604.139a2.043,2.043,0,0,0-.115-.238l.019-.018a15.943,15.943,0,1,0-15.174,21.751c.122.006.246.01.378.01,6.633,0,9.687-2.235,13.171-5.58l-4.885-4.885c-1.442,1.442-3.369,2.915-7.842,2.764v-.006c-.036,0-.072,0-.109,0a8.176,8.176,0,0,1-7.819-6.01h23S2115.778,2607.342,2114.537,2604.139Zm-22.071,2.255a8.142,8.142,0,0,1,7.514-5.137,7.954,7.954,0,0,1,4.466,1.373l-.039.007a5.4,5.4,0,0,1,2.287,3.758Z" transform="translate(-765.901 -56.772)" fill="#0665ef"/>
    <path id="Caminho_5" data-name="Caminho 5" d="M1874.535,2541.96a11.654,11.654,0,0,0-9.242,3.835v-14.637l-8.7.187.06,41.239h8.636v-3.746c2.073,2.366,5.1,3.8,9.242,3.8,8.035,0,14.549-6.868,14.549-15.34S1882.57,2541.96,1874.535,2541.96Zm-1.966,22.909a7.53,7.53,0,1,1,7.784-7.525A7.658,7.658,0,0,1,1872.569,2564.869Z" transform="translate(-574.648 -3.761)" fill="#0665ef"/>
    <path id="Caminho_6" data-name="Caminho 6" d="M2469.72,2560.637a17.386,17.386,0,0,1-2.4.17,3.532,3.532,0,0,1-3.426-3.583v-11.4h6.174l-.064-7.7h-6.11v-11.432h-8.509l-.043,11.432h-3.772l-.022,7.7h3.764l-.008,2.014-.017,4.563c-.006,1.633.031,3.267.025,4.9-.009,2.435-.079,4.916,1.183,7.11a7.685,7.685,0,0,0,4.252,3.617,8.331,8.331,0,0,0,2.612.418,42.058,42.058,0,0,0,6.43-.4s.094-7.382,0-7.382A.314.314,0,0,1,2469.72,2560.637Z" transform="translate(-1075.788)" fill="#0665ef"/>
    <path id="Caminho_7" data-name="Caminho 7" d="M1206.591,2624.481v-25.614h-8.509l.054,3.667c-1.739-2.458-4.712-4.088-9.787-4.088-7.716,0-13.97,6.8-13.97,15.185s6.255,15.185,13.97,15.185c5.331,0,8.4-1.381,10.124-3.987,1.018,11.336-12.013,11.474-18.027,6.473-1.088,1.5-4.1,6.216-4.1,6.216C1182.518,2643.458,1207.384,2646.314,1206.591,2624.481Zm-15.7-3.194a7.478,7.478,0,1,1,7.694-7.476A7.587,7.587,0,0,1,1190.894,2621.287Z" transform="translate(0 -60.439)" fill="#0665ef"/>
    <circle id="Elipse_1" data-name="Elipse 1" cx="4.037" cy="4.037" r="4.037" transform="translate(1399.304 2560.569)" fill="#0665ef"/>
  </g>
</svg>
