<svg width="660" height="280" viewBox="0 0 660 280" fill="none" xmlns="http://www.w3.org/2000/svg">
<path d="M330.71 0.400024C272.93 0.400024 226.1 45.19 226.1 100.4C226.1 155.61 272.93 200.5 330.71 200.5C388.49 200.5 435.32 155.7 435.32 100.45C435.32 45.2 388.48 0.400024 330.71 0.400024ZM330.71 150.33C320.845 150.33 311.201 147.405 302.998 141.924C294.796 136.443 288.402 128.653 284.627 119.538C280.852 110.424 279.864 100.395 281.789 90.7189C283.713 81.0431 288.464 72.1554 295.44 65.1795C302.415 58.2037 311.303 53.4531 320.979 51.5285C330.655 49.6038 340.684 50.5916 349.798 54.3669C358.913 58.1422 366.703 64.5355 372.184 72.7382C377.665 80.9409 380.59 90.5847 380.59 100.45C380.59 107 379.3 113.487 376.793 119.538C374.287 125.59 370.612 131.089 365.981 135.721C361.349 140.352 355.85 144.026 349.798 146.533C343.747 149.04 337.26 150.33 330.71 150.33V150.33Z" fill="white"/>
<path d="M659.19 153C638.54 152.74 635.79 140 636.61 119.5V9.32001H582.61L581.8 120.46C581.24 155.81 512.01 168.46 512.01 117.61L511 9.32001H457L457.86 121.15C458.41 163.82 476.14 201.28 528.54 201.28C581.77 201.28 586.76 173.28 586.76 173.28C593.96 198.28 627.76 204.61 659.39 197.67C659.46 169.67 659.19 153 659.19 153Z" fill="white"/>
<path d="M204.29 169.87V7.42H150.29L150.63 30.68C139.63 15.09 120.75 4.75 88.56 4.75C39.67 4.75 0 47.87 0 101.05C0 154.23 39.67 197.36 88.6 197.36C122.41 197.36 141.85 188.6 152.81 172.08C159.26 243.96 76.62 244.85 38.48 213.08C31.58 222.59 12.48 252.5 12.48 252.5C51.63 290.22 209.33 308.33 204.29 169.87ZM104.74 149.61C77.79 149.61 56 128.39 56 102.2C56 76.01 77.84 54.8 104.79 54.8C131.74 54.8 153.59 76.02 153.59 102.2C153.59 128.38 131.69 149.61 104.74 149.61Z" fill="white"/>
</svg>
