<svg width="141" height="36" viewBox="0 0 141 36" fill="none" xmlns="http://www.w3.org/2000/svg">
<g clip-path="url(#clip0_205_21)">
<path d="M33.4357 7.30612C27.594 7.30612 22.8594 11.8291 22.8594 17.4042C22.8594 22.9794 27.594 27.5124 33.4357 27.5124C39.2775 27.5124 44.0121 22.9885 44.0121 17.4093C44.0121 11.8301 39.2764 7.30612 33.4357 7.30612ZM33.4357 22.4462C32.4383 22.4462 31.4633 22.1508 30.634 21.5973C29.8047 21.0439 29.1583 20.2572 28.7766 19.3368C28.3949 18.4164 28.295 17.4037 28.4896 16.4266C28.6842 15.4495 29.1645 14.552 29.8698 13.8476C30.5751 13.1432 31.4736 12.6635 32.4519 12.4691C33.4301 12.2748 34.4441 12.3745 35.3656 12.7558C36.2871 13.137 37.0747 13.7826 37.6288 14.6109C38.183 15.4392 38.4787 16.4131 38.4787 17.4093C38.4787 18.0707 38.3483 18.7257 38.0949 19.3368C37.8414 19.9479 37.47 20.5032 37.0017 20.9709C36.5334 21.4386 35.9775 21.8097 35.3656 22.0628C34.7538 22.3159 34.098 22.4462 33.4357 22.4462V22.4462Z" fill="white"/>
<path d="M66.6461 22.7158C64.5583 22.6896 64.2803 21.4031 64.3632 19.333V8.20688H58.9036L58.8217 19.4299C58.7651 22.9996 51.7658 24.277 51.7658 19.1421L51.6637 8.20688H46.2041L46.291 19.4996C46.3467 23.8084 48.1392 27.5912 53.437 27.5912C58.8187 27.5912 59.3232 24.7637 59.3232 24.7637C60.0511 27.2882 63.4684 27.9274 66.6663 27.2266C66.6734 24.3992 66.6461 22.7158 66.6461 22.7158Z" fill="white"/>
<path d="M125.534 7.3869C124.429 7.38652 123.341 7.6719 122.378 8.21529C121.416 8.75869 120.61 9.54163 120.039 10.488V7.84334H114.58L114.498 27.3811L120.035 27.365V17.4648C120.038 17.469 120.041 17.4734 120.043 17.4779C120.104 14.3253 122.427 12.6056 125.125 12.6056C125.786 12.6015 126.446 12.6627 127.095 12.7884V7.57978C126.585 7.45198 126.061 7.38721 125.534 7.3869V7.3869Z" fill="white"/>
<path d="M111.734 13.7396C111.712 13.6873 111.687 13.6363 111.659 13.5871L111.672 13.576C110.887 11.7124 109.567 10.1225 107.878 9.00676C106.19 7.89101 104.209 7.29928 102.185 7.30612C96.5228 7.30612 91.9297 11.8291 91.9297 17.4042C91.9297 22.9036 96.3914 27.3731 101.939 27.5023C102.017 27.5023 102.097 27.5094 102.182 27.5094C106.434 27.5094 108.392 26.0775 110.627 23.9357L107.492 20.8053C106.568 21.7282 105.332 22.6714 102.464 22.5755H102.394C100.017 22.5755 98.012 20.9507 97.3801 18.7271H112.125C112.125 18.7271 112.527 15.7905 111.734 13.7396ZM97.5793 15.1836C98.3669 13.2529 100.225 11.8937 102.398 11.8937C103.419 11.8939 104.416 12.1999 105.261 12.7722H105.236C106.682 13.9234 106.703 15.1786 106.703 15.1786L97.5793 15.1836Z" fill="white"/>
<path d="M80.4781 7.87161C77.8252 7.87161 75.882 8.80063 74.5525 10.3275V0.951385L68.9746 1.07054L69.013 27.4811H74.5504V25.0818C75.8799 26.5965 77.8231 27.5164 80.4761 27.5164C85.6323 27.5164 89.8048 23.1187 89.8048 17.693C89.8048 12.2673 85.6283 7.87161 80.4781 7.87161ZM79.2153 22.5401C76.4593 22.5401 74.2239 20.3831 74.2239 17.7213C74.2239 15.0594 76.4593 12.9015 79.2153 12.9015C81.9714 12.9015 84.2068 15.0594 84.2068 17.7213C84.2068 20.3831 81.9724 22.5401 79.2153 22.5401Z" fill="white"/>
<path d="M140.777 22.2392C140.267 22.3104 139.753 22.3465 139.237 22.3472C138.034 22.3472 137.059 21.3233 137.041 20.0529V12.755H141L140.958 7.82112H137.041V0.5H131.582L131.555 7.82112H129.136L129.122 12.755H131.536V14.0446L131.525 16.967C131.525 18.0131 131.545 19.0593 131.541 20.1055C131.535 21.6646 131.491 23.253 132.301 24.6587C132.93 25.7493 133.831 26.5773 135.031 26.9752C135.571 27.1527 136.137 27.243 136.706 27.2428C139.351 27.2428 140.828 26.9893 140.828 26.9893C140.828 26.9893 140.888 22.2614 140.828 22.2614C140.81 22.2558 140.793 22.2484 140.777 22.2392V22.2392Z" fill="white"/>
<path d="M20.6543 24.4194V8.01501H15.1947L15.2291 10.3638C14.117 8.78953 12.2082 7.74539 8.95366 7.74539C4.01075 7.74539 0 12.0997 0 17.4699C0 22.84 4.01075 27.1953 8.95771 27.1953C12.376 27.1953 14.3414 26.3107 15.4495 24.6425C16.1016 31.901 7.7465 31.9909 3.89044 28.7828C3.19283 29.7431 1.26176 32.7634 1.26176 32.7634C5.21994 36.5724 21.1639 38.4012 20.6543 24.4194ZM10.5895 22.3735C7.86479 22.3735 5.66176 20.2307 5.66176 17.586C5.66176 14.9413 7.86984 12.7995 10.5946 12.7995C13.3193 12.7995 15.5284 14.9423 15.5284 17.586C15.5284 20.2297 13.3142 22.3735 10.5895 22.3735Z" fill="white"/>
</g>
<defs>
<clipPath id="clip0_205_21">
<rect width="141" height="35" fill="white" transform="translate(0 0.5)"/>
</clipPath>
</defs>
</svg>
