<svg xmlns="http://www.w3.org/2000/svg" width="30.185" height="30.33" viewBox="0 0 30.185 30.33">
    <path id="prefix__whatsapp" d="M26.037 4.408A15.033 15.033 0 0 0 2.382 22.542L.25 30.33l7.967-2.09a15.013 15.013 0 0 0 7.183 1.829h.006A15.036 15.036 0 0 0 26.037 4.408zM15.405 27.531H15.4a12.476 12.476 0 0 1-6.358-1.741l-.456-.271-4.728 1.24L5.12 22.15l-.3-.473a12.492 12.492 0 1 1 10.582 5.854zm6.852-9.356c-.375-.188-2.222-1.1-2.566-1.222s-.595-.188-.845.188-.97 1.222-1.189 1.472-.438.282-.814.094a10.257 10.257 0 0 1-3.02-1.864 11.328 11.328 0 0 1-2.089-2.6c-.219-.376 0-.56.165-.766a10.622 10.622 0 0 0 .939-1.285.691.691 0 0 0-.031-.658c-.094-.188-.845-2.036-1.158-2.788-.305-.732-.614-.633-.845-.645s-.469-.013-.72-.013a1.379 1.379 0 0 0-1 .47 4.212 4.212 0 0 0-1.315 3.132A7.305 7.305 0 0 0 9.3 15.575a16.739 16.739 0 0 0 6.415 5.67 21.5 21.5 0 0 0 2.141.791 5.148 5.148 0 0 0 2.365.149 3.869 3.869 0 0 0 2.537-1.785 3.138 3.138 0 0 0 .219-1.786c-.094-.157-.344-.25-.72-.439zm0 0" transform="translate(-.25)" style="fill:#0665ef;fill-rule:evenodd"/>
</svg>
